<?xml version="1.0" encoding="utf-8"?>
<!-- Generator: Adobe Illustrator 25.4.1, SVG Export Plug-In . SVG Version: 6.00 Build 0)  -->
<svg version="1.1" id="_x34_746a87b-e7ac-476a-abc6-e77b15a9a3dd"
	 xmlns="http://www.w3.org/2000/svg" xmlns:xlink="http://www.w3.org/1999/xlink" x="0px" y="0px" viewBox="0 0 859.4 751.86"
	 style="enable-background:new 0 0 859.4 751.86;" xml:space="preserve">
<style type="text/css">
	.st0{fill:#F1F1F1;}
	.st1{fill:#57DAAC;}
	.st2{fill:#FBD046;}
	.st3{fill:#FFDE78;}
	.st4{fill:#DCB53A;}
	.st5{fill:#FFFFFF;}
	.st6{fill:#BEEFDE;}
	.st7{fill:#FB1475;}
	.st8{fill:#55A6C4;}
	.st9{fill:#88C0D4;}
	.st10{fill:#912476;}
	.st11{fill:#B5D7E3;}
	.st12{fill:#CCC9C9;}
	.st13{fill:#E8E7E7;}
	.st14{fill:#611B4F;}
	.st15{fill:#F1B0A8;}
	.st16{fill:#42BA8C;}
	.st17{fill:#FBBE88;}
	.st18{fill:#CA0E5D;}
	.st19{fill:#2C9369;}
	.st20{fill:#8DE4C5;}
	.st21{fill:#DDB63B;}
</style>
<g>
	<path class="st0" d="M750.24,111.59c-3.82-2.86-8.78-3.77-13.35-2.44c-98.75,28.66-217.49,43.82-343.37,43.82
		c-125.87,0-244.61-15.15-343.37-43.82c-4.59-1.34-9.53-0.43-13.35,2.44c-3.82,2.87-6.07,7.37-6.07,12.14v600.5
		c0,4.77,2.25,9.27,6.07,12.14c3.82,2.88,8.77,3.78,13.35,2.44C148.9,710.15,267.64,695,393.52,695
		c125.88,0,244.61,15.15,343.37,43.81c1.39,0.41,2.81,0.6,4.23,0.6c3.25,0,6.46-1.04,9.12-3.04c3.82-2.87,6.07-7.36,6.07-12.14
		v-600.5C756.31,118.96,754.06,114.46,750.24,111.59z"/>
</g>
<path class="st1" d="M352.96,647.12c0,8.52,6.9,15.42,15.42,15.42h317.37c8.52,0,15.42-6.9,15.42-15.42V45.66
	c0-8.52-6.9-15.42-15.42-15.42H368.39c-8.52,0-15.42,6.9-15.42,15.42V647.12z"/>
<g>
	<rect x="313.51" y="641.98" class="st2" width="121.29" height="20.86"/>
	<rect x="422.12" y="641.98" class="st3" width="4.17" height="20.86"/>
	<rect x="407.82" y="641.98" class="st3" width="4.17" height="20.86"/>
	<rect x="393.52" y="641.98" class="st3" width="4.17" height="20.86"/>
	<rect x="379.22" y="641.98" class="st3" width="4.17" height="20.86"/>
	<rect x="364.92" y="641.98" class="st3" width="4.17" height="20.86"/>
	<rect x="350.62" y="641.98" class="st3" width="4.17" height="20.86"/>
	<rect x="336.32" y="641.98" class="st3" width="4.18" height="20.86"/>
	<rect x="322.02" y="641.98" class="st3" width="4.18" height="20.86"/>
	<polygon class="st4" points="409.9,641.98 313.51,652.41 313.51,641.98 	"/>
</g>
<rect x="196.74" y="616.6" transform="matrix(0.9001 -0.4357 0.4357 0.9001 -247.4945 174.8018)" class="st2" width="121.29" height="20.86"/>
<rect x="300.34" y="594.79" transform="matrix(0.9001 -0.4357 0.4357 0.9001 -233.4921 192.2501)" class="st3" width="4.17" height="20.86"/>
<rect x="287.47" y="601.02" transform="matrix(0.9001 -0.4357 0.4357 0.9001 -237.4928 187.2648)" class="st3" width="4.17" height="20.86"/>
<rect x="274.6" y="607.25" transform="matrix(0.9001 -0.4357 0.4357 0.9001 -241.4935 182.2796)" class="st3" width="4.17" height="20.86"/>
<rect x="261.73" y="613.48" transform="matrix(0.9001 -0.4357 0.4357 0.9001 -245.4941 177.2945)" class="st3" width="4.17" height="20.86"/>
<rect x="248.86" y="619.71" transform="matrix(0.9001 -0.4357 0.4357 0.9001 -249.4948 172.3093)" class="st3" width="4.17" height="20.86"/>
<rect x="235.99" y="625.94" transform="matrix(0.9001 -0.4357 0.4357 0.9001 -253.4954 167.324)" class="st3" width="4.17" height="20.86"/>
<rect x="223.12" y="632.17" transform="matrix(0.9001 -0.4357 0.4357 0.9001 -257.4972 162.3374)" class="st3" width="4.18" height="20.86"/>
<rect x="210.25" y="638.4" transform="matrix(0.9001 -0.4357 0.4357 0.9001 -261.4979 157.3521)" class="st3" width="4.18" height="20.86"/>
<path class="st5" d="M690.21,67.85v541.79c0,8.37-6.78,15.15-15.15,15.15H378.74c-8.37,0-15.15-6.78-15.15-15.15V67.85
	c0-8.37,6.78-15.15,15.15-15.15h57.67c0,6.46,2.61,12.3,6.85,16.53c4.23,4.23,10.07,6.84,16.53,6.84h134.23
	c12.91,0,23.38-10.46,23.38-23.38h57.67C683.43,52.69,690.21,59.48,690.21,67.85z"/>
<ellipse transform="matrix(0.7071 -0.7071 0.7071 0.7071 -234.719 533.7211)" class="st6" cx="526.9" cy="550.19" rx="33.61" ry="33.61"/>
<ellipse transform="matrix(0.0165 -0.9999 0.9999 0.0165 -127.2284 971.0372)" class="st7" cx="429.98" cy="550.19" rx="25.06" ry="25.06"/>
<circle class="st8" cx="623.81" cy="550.19" r="25.06"/>
<g>
	<path class="st9" d="M420.49,309.33h-10.86c-4.2,0-7.61,3.41-7.61,7.61v22.85c0,4.2,3.41,7.61,7.61,7.61h10.86
		c4.2,0,7.61-3.41,7.61-7.61v-22.85C428.1,312.74,424.69,309.33,420.49,309.33z"/>
	<path class="st9" d="M478.43,293.32h-10.86c-4.2,0-7.61,3.41-7.61,7.61v40.34c0,4.2,3.41,7.61,7.61,7.61h10.86
		c4.2,0,7.61-3.41,7.61-7.61v-40.34C486.04,296.72,482.63,293.32,478.43,293.32z"/>
	<path class="st9" d="M536.37,236.77h-10.86c-4.2,0-7.61,3.41-7.61,7.61v95.9c0,4.2,3.41,7.61,7.61,7.61h10.86
		c4.2,0,7.61-3.41,7.61-7.61v-95.9C543.98,240.18,540.57,236.77,536.37,236.77z"/>
	<path class="st9" d="M594.31,253.75h-10.86c-4.2,0-7.61,3.41-7.61,7.61v79.42c0,4.2,3.41,7.61,7.61,7.61h10.86
		c4.2,0,7.61-3.41,7.61-7.61v-79.42C601.92,257.16,598.51,253.75,594.31,253.75z"/>
	<path class="st9" d="M652.25,199.46h-10.86c-4.2,0-7.61,3.41-7.61,7.61V339.3c0,4.2,3.41,7.61,7.61,7.61h10.86
		c4.2,0,7.61-3.41,7.61-7.61V207.06C659.86,202.86,656.45,199.46,652.25,199.46z"/>
</g>
<path class="st10" d="M657.83,138.76l-23.43,6.2c-1.18,0.31-1.57,1.73-0.69,2.54l4.41,4.1l-51.95,50.3l-55.63-11.96
	c-2-0.43-4.1,0.14-5.55,1.52l-58.37,55.32l-57.96,14.85c-3.19,0.82-5.08,3.94-4.22,6.97c0.72,2.53,3.14,4.2,5.78,4.2
	c0.52,0,1.04-0.06,1.56-0.2l59.5-15.25c1.01-0.26,1.93-0.76,2.67-1.47l57.16-54.18l55.67,11.97c2.02,0.44,4.15-0.16,5.6-1.57
	l54.29-52.57l4.41,4.1c0.88,0.82,2.36,0.42,2.66-0.71l6.06-22.36C660.11,139.46,659.01,138.44,657.83,138.76z"/>
<path class="st11" d="M670.33,356.61H385.97V122.37c0-1.38-1.12-2.5-2.5-2.5s-2.5,1.12-2.5,2.5v236.73c0,1.38,1.12,2.5,2.5,2.5
	h286.87c1.38,0,2.5-1.12,2.5-2.5S671.71,356.61,670.33,356.61z"/>
<path class="st12" d="M539.24,400.25H387.09c-2,0-3.62-1.62-3.62-3.62v-5.17c0-2,1.62-3.62,3.62-3.62h152.16
	c2,0,3.62,1.62,3.62,3.62v5.17C542.86,398.63,541.24,400.25,539.24,400.25z"/>
<path class="st13" d="M666.71,430.19H387.09c-2,0-3.62-1.62-3.62-3.62v-5.17c0-2,1.62-3.62,3.62-3.62h279.62
	c2,0,3.62,1.62,3.62,3.62v5.17C670.33,428.56,668.71,430.19,666.71,430.19z"/>
<path class="st13" d="M666.71,460.39H387.09c-2,0-3.62-1.62-3.62-3.62v-5.17c0-2,1.62-3.62,3.62-3.62h279.62
	c2,0,3.62,1.62,3.62,3.62v5.17C670.33,458.77,668.71,460.39,666.71,460.39z"/>
<path class="st13" d="M666.71,490.59H387.09c-2,0-3.62-1.62-3.62-3.62v-5.17c0-2,1.62-3.62,3.62-3.62h279.62
	c2,0,3.62,1.62,3.62,3.62v5.17C670.33,488.97,668.71,490.59,666.71,490.59z"/>
<ellipse transform="matrix(0.8099 -0.5865 0.5865 0.8099 76.1273 357.0894)" class="st5" cx="589.03" cy="61.09" rx="5.3" ry="5.3"/>
<ellipse transform="matrix(0.8099 -0.5865 0.5865 0.8099 52.5019 284.185)" class="st5" cx="464.73" cy="61.09" rx="5.3" ry="5.3"/>
<path class="st5" d="M570.23,58.16h-86.66c-1.62,0-2.93,1.31-2.93,2.93l0,0c0,1.62,1.31,2.93,2.93,2.93h86.66
	c1.62,0,2.93-1.31,2.93-2.93l0,0C573.16,59.47,571.85,58.16,570.23,58.16z"/>
<g>
	<rect x="663.04" y="636.55" class="st2" width="152.87" height="26.3"/>
	<rect x="673.77" y="636.55" class="st3" width="5.26" height="26.3"/>
	<rect x="691.79" y="636.55" class="st3" width="5.26" height="26.3"/>
	<rect x="709.81" y="636.55" class="st3" width="5.26" height="26.3"/>
	<rect x="727.83" y="636.55" class="st3" width="5.26" height="26.3"/>
	<rect x="745.85" y="636.55" class="st3" width="5.26" height="26.3"/>
	<rect x="763.87" y="636.55" class="st3" width="5.26" height="26.3"/>
	<rect x="781.9" y="636.55" class="st3" width="5.27" height="26.3"/>
	<rect x="799.92" y="636.55" class="st3" width="5.27" height="26.3"/>
	<polygon class="st4" points="694.42,636.55 815.9,649.69 815.9,636.55 	"/>
</g>
<g>
	<rect x="694.42" y="610.25" class="st2" width="152.87" height="26.3"/>
	<rect x="705.15" y="610.25" class="st3" width="5.26" height="26.3"/>
	<rect x="723.17" y="610.25" class="st3" width="5.26" height="26.3"/>
	<rect x="741.19" y="610.25" class="st3" width="5.26" height="26.3"/>
	<rect x="759.21" y="610.25" class="st3" width="5.26" height="26.3"/>
	<rect x="777.23" y="610.25" class="st3" width="5.26" height="26.3"/>
	<rect x="795.25" y="610.25" class="st3" width="5.26" height="26.3"/>
	<rect x="813.27" y="610.25" class="st3" width="5.27" height="26.3"/>
	<rect x="831.3" y="610.25" class="st3" width="5.27" height="26.3"/>
</g>
<g>
	<rect x="696.13" y="583.95" class="st2" width="152.87" height="26.3"/>
	<rect x="706.86" y="583.95" class="st3" width="5.26" height="26.3"/>
	<rect x="724.89" y="583.95" class="st3" width="5.26" height="26.3"/>
	<rect x="742.91" y="583.95" class="st3" width="5.26" height="26.3"/>
	<rect x="760.93" y="583.95" class="st3" width="5.26" height="26.3"/>
	<rect x="778.95" y="583.95" class="st3" width="5.26" height="26.3"/>
	<rect x="796.97" y="583.95" class="st3" width="5.26" height="26.3"/>
	<rect x="814.99" y="583.95" class="st3" width="5.27" height="26.3"/>
	<rect x="833.01" y="583.95" class="st3" width="5.27" height="26.3"/>
</g>
<g>
	<rect x="678.73" y="557.66" class="st2" width="152.87" height="26.3"/>
	<rect x="689.46" y="557.66" class="st3" width="5.26" height="26.3"/>
	<rect x="707.48" y="557.66" class="st3" width="5.26" height="26.3"/>
	<rect x="725.5" y="557.66" class="st3" width="5.26" height="26.3"/>
	<rect x="743.52" y="557.66" class="st3" width="5.26" height="26.3"/>
	<rect x="761.54" y="557.66" class="st3" width="5.26" height="26.3"/>
	<rect x="779.56" y="557.66" class="st3" width="5.26" height="26.3"/>
	<rect x="797.59" y="557.66" class="st3" width="5.27" height="26.3"/>
	<rect x="815.61" y="557.66" class="st3" width="5.27" height="26.3"/>
</g>
<g>
	<rect x="682.78" y="531.36" class="st2" width="152.87" height="26.3"/>
	<rect x="693.51" y="531.36" class="st3" width="5.26" height="26.3"/>
	<rect x="711.53" y="531.36" class="st3" width="5.26" height="26.3"/>
	<rect x="729.55" y="531.36" class="st3" width="5.26" height="26.3"/>
	<rect x="747.57" y="531.36" class="st3" width="5.26" height="26.3"/>
	<rect x="765.59" y="531.36" class="st3" width="5.26" height="26.3"/>
	<rect x="783.61" y="531.36" class="st3" width="5.26" height="26.3"/>
	<rect x="801.64" y="531.36" class="st3" width="5.27" height="26.3"/>
	<rect x="819.66" y="531.36" class="st3" width="5.27" height="26.3"/>
</g>
<circle class="st2" cx="761.54" cy="454.92" r="76.43"/>
<g>
	<path class="st3" d="M761.54,511.53c-31.21,0-56.6-25.39-56.6-56.6c0-31.21,25.39-56.6,56.6-56.6c31.21,0,56.6,25.39,56.6,56.6
		C818.15,486.14,792.75,511.53,761.54,511.53z M761.54,403.43c-28.39,0-51.49,23.1-51.49,51.49c0,28.39,23.1,51.49,51.49,51.49
		c28.39,0,51.49-23.1,51.49-51.49C813.03,426.53,789.93,403.43,761.54,403.43z"/>
</g>
<path class="st14" d="M593.45,609.86h-133.1c-0.97,0-1.75,0.78-1.75,1.75l0,0c0,0.97,0.78,1.75,1.75,1.75h133.1
	c0.97,0,1.75-0.78,1.75-1.75l0,0C595.19,610.64,594.41,609.86,593.45,609.86z"/>
<polygon class="st15" points="149.12,633.86 151.07,610.97 131.1,610.97 131.91,633.86 138.57,643.76 "/>
<polygon class="st15" points="102.39,633.86 104.34,610.97 84.37,610.97 85.18,633.86 91.83,643.76 "/>
<g>
	<path class="st10" d="M131.91,633.86c0,0,10.88,3.9,17.21,0l13.44,24.11l3.42,2.38c1.1,0.76,0.56,2.49-0.78,2.49h-16.57
		l-8.52-12.18h-6.33l-1.22,12.18h-2.92l-3.9-14.49C125.74,648.35,125.55,641.98,131.91,633.86z"/>
	<path class="st10" d="M85.18,633.86c0,0,10.88,3.9,17.21,0l13.44,24.11l3.42,2.38c1.1,0.76,0.56,2.49-0.78,2.49H101.9l-8.52-12.18
		h-6.33l-1.22,12.18H82.9l-3.9-14.49C79.01,648.35,78.82,641.98,85.18,633.86z"/>
</g>
<path class="st16" d="M68.75,384.46l18.51,115.44l-2.9,111.06c0,0,12.18,5.36,19.97,0l15.07-109.6V384.46H68.75z"/>
<g>
	<path class="st17" d="M137.03,159.76c0,0,4.65,52.26-11.61,46.07c-16.26-6.19-29.03-21.29-24.78-39.49S127.74,136.53,137.03,159.76
		z"/>
	<path class="st17" d="M122.8,198.57c0,0-2.61,20.61,1.74,29.62c4.36,9-29.33,4.06-29.33,4.06s5.41-22.65,4.59-35.13
		C98.99,184.63,122.8,198.57,122.8,198.57z"/>
	<path class="st17" d="M235.67,255.38l11.27-11.91c1.36-1.44,3.78-0.91,4.41,0.97v0c0.21,0.62,0.18,1.29-0.08,1.88l-2.76,6.38
		l16.56-0.97l6.58-1.65c2.83-0.71,5.71,0.99,6.45,3.82l0,0c0.64,2.43-0.5,4.97-2.74,6.11l-11.99,6.09l-25.82,4.26L235.67,255.38z"/>
</g>
<path class="st7" d="M135.87,157.19c0,0-14.52,5.51-14.52,19.38c0,0-5.52-7.91-9-3.84c-3.48,4.06-3.77,9,3.48,14.81l-3.48,10.68
	c0,0-6.05,4.12-12.46,2.09c-6.41-2.03-31.18-17.4-18.9-46.16C92.02,128.3,125.71,129.46,135.87,157.19z"/>
<path class="st18" d="M67.34,146.8c0,0,6.58-17.07,19.36-11.25c12.78,5.82,8.13,24.79,0,29.05
	C78.57,168.86,59.41,170.21,67.34,146.8z"/>
<polygon class="st19" points="119.41,501.37 107.72,429.28 119.41,475.42 "/>
<path class="st16" d="M164.19,386.25l-9.71,109.27l-3.41,115.44c0,0-9.74,4.87-19.97,0l-4.87-108.62l-18.51-73.07l-12.18-6.82
	c0,0-10.23-27.28,7.31-40.43c17.54-13.15,46.27-26.79,46.27-26.79L164.19,386.25z"/>
<path class="st1" d="M71.66,223.5c13.52-3.35,58.94-12.96,77.63,3.87l10.38,30.29c1.83,5.33,1.14,11.21-1.89,15.97l-6.55,10.33
	l-2.27,33.77l18.19,68.19c0,0-12.34,1.62-15.91,0l-5.85-23.38l-4.22,24.1c0,0-41.57,10.79-76.64,0c0,0,2.6-32.22,19.48-61.12
	c0,0-14.61-39.62-19.48-56.18c-3.77-12.82,0.26-32.67,2.27-40.97C67.38,225.96,69.26,224.09,71.66,223.5z"/>
<path class="st20" d="M149.29,227.37l29.55,52.36l56.83-24.36c0,0,8.12,11.04,9.42,17.54l-68.12,39.27
	c-3.62,2.09-8.22,1.31-10.96-1.85l-30.36-35.14C135.65,275.19,126.88,240.28,149.29,227.37z"/>
<g>
	<rect x="288.62" y="621.11" class="st2" width="121.29" height="20.86"/>
	<rect x="397.22" y="621.11" class="st3" width="4.17" height="20.86"/>
	<rect x="382.92" y="621.11" class="st3" width="4.17" height="20.86"/>
	<rect x="368.62" y="621.11" class="st3" width="4.17" height="20.86"/>
	<rect x="354.32" y="621.11" class="st3" width="4.17" height="20.86"/>
	<rect x="340.02" y="621.11" class="st3" width="4.17" height="20.86"/>
	<rect x="325.73" y="621.11" class="st3" width="4.17" height="20.86"/>
	<rect x="311.42" y="621.11" class="st3" width="4.18" height="20.86"/>
	<rect x="297.12" y="621.11" class="st3" width="4.18" height="20.86"/>
</g>
<g>
	<polyline class="st21" points="766.05,432.97 741.91,434.89 763.54,443.78 	"/>
	<polygon class="st21" points="766.05,437.04 722.25,443.29 766.05,452.14 	"/>
	<polygon class="st21" points="758.06,461.97 759.53,443.78 731.46,451.1 	"/>
	<path class="st21" d="M774.72,428.93c-9.11,0-16.75,6.26-18.87,14.72l-15.79,37.28l15.65-0.6l7.04-16.62
		c3.3,2.58,7.45,4.12,11.96,4.12c10.74,0,19.45-8.71,19.45-19.45C794.17,437.64,785.46,428.93,774.72,428.93z"/>
</g>
<g>
	<rect x="635.5" y="612.64" class="st5" width="73.17" height="56.45"/>
	<path class="st5" d="M651.21,661.29c0.04,0,0.08,0,0.13-0.01v0c3.13-0.42,6.36-0.76,9.67-0.99c1.38-0.1,2.78-0.17,4.19-0.23
		c2.22-0.09,4.46-0.14,6.73-0.14c2.09,0,4.15,0.05,6.2,0.12c1.41,0.05,2.8,0.12,4.19,0.21c1.47,0.09,2.93,0.21,4.37,0.34
		c1.41,0.13,2.81,0.29,4.19,0.45c2.98,0.36,5.9,0.81,8.76,1.35c0,0,0.01,0,0.01,0c0.01,0,0.02,0,0.03,0
		c0.05,0.01,0.1,0.01,0.15,0.01c0.08,0.01,0.16,0.02,0.24,0.02c0.01,0,0.01,0,0.02,0c0.1,0,0.19-0.02,0.29-0.03l0,0
		c0.34-0.05,0.65-0.18,0.91-0.37c0.08-0.06,0.17-0.12,0.24-0.2c0.3-0.29,0.51-0.67,0.6-1.1c0,0,0-0.01,0-0.01
		c0.01-0.06,0.01-0.12,0.02-0.18c0.01-0.07,0.02-0.14,0.02-0.21v-35.97c0-2.71-2.2-4.91-4.91-4.91c-0.27,0-0.53,0.02-0.79,0.06
		c-1.73,0.28-3.51,0.54-5.3,0.76c-2.54,0.32-4.46,2.49-4.46,5.05l0,24.73c0,0.49,0.37,0.9,0.85,0.94c0.77,0.07,1.53,0.15,2.29,0.24
		c0.03,0,0.06,0,0.1,0c0.52,0,0.95-0.42,0.95-0.95l0-5.21c0-0.36,0.29-0.64,0.64-0.64h5.8c0.36,0,0.64,0.29,0.64,0.64v11.99
		c0,0.36-0.29,0.64-0.64,0.64c-0.03,0-0.07,0-0.1-0.01h0c-2.08-0.34-4.2-0.64-6.34-0.9c-1.39-0.16-2.78-0.32-4.19-0.44
		c-1.44-0.13-2.9-0.24-4.37-0.33c-1.39-0.09-2.78-0.15-4.19-0.2c-2.05-0.07-4.12-0.12-6.2-0.12c-2.28,0-4.52,0.05-6.73,0.13
		c-1.41,0.06-2.81,0.13-4.19,0.22c-3.41,0.22-6.72,0.55-9.92,0.97v0c-0.47,0.06-0.83,0.46-0.83,0.94v2.35
		C650.27,660.86,650.69,661.29,651.21,661.29z M697.33,640.26h-5.8c-0.36,0-0.64-0.29-0.64-0.64v-14.28c0-0.45,0.34-0.84,0.78-0.89
		c1.85-0.23,3.69-0.49,5.46-0.78c0.42-0.06,0.84,0.28,0.84,0.71v15.24C697.98,639.97,697.69,640.26,697.33,640.26z"/>
	<path class="st5" d="M642.65,662.71c0.06,0,0.12-0.01,0.18-0.02l0,0c0.75-0.15,1.5-0.3,2.27-0.43l0,0
		c0.45-0.07,0.79-0.46,0.79-0.94v-41.28c0-0.47-0.34-0.86-0.78-0.93c-0.77-0.14-1.52-0.29-2.27-0.44h0
		c-0.06-0.01-0.12-0.02-0.19-0.02c-0.52,0-0.95,0.42-0.95,0.95v42.16C641.7,662.28,642.13,662.71,642.65,662.71z"/>
	<path class="st5" d="M671.67,650.27h0.27c2.08,0,4.14,0.05,6.2,0.12c1.07,0.04,2.13,0.09,3.19,0.14l0,0c0.02,0,0.04,0,0.05,0
		c0.52,0,0.95-0.42,0.95-0.95v-2.3c0-0.51-0.4-0.92-0.9-0.95l0,0c-1.09-0.06-2.19-0.11-3.29-0.15c-1.24-0.04-2.48-0.08-3.74-0.1
		c-0.35,0-0.64-0.29-0.64-0.64v-8.9c0-0.36,0.29-0.64,0.64-0.64h6.97c0.52,0,0.95-0.42,0.95-0.95v-2.29c0-0.52-0.42-0.95-0.95-0.95
		h-6.97c-0.36,0-0.64-0.29-0.64-0.64v-4.81c0-0.35,0.28-0.64,0.63-0.64l0,0c1.25-0.02,2.5-0.06,3.74-0.1
		c1.1-0.04,2.2-0.09,3.29-0.15c0.5-0.02,0.9-0.44,0.9-0.95v-2.3c0-0.52-0.42-0.95-0.95-0.95c-0.02,0-0.04,0-0.06,0l0,0
		c-1.06,0.06-2.12,0.12-3.18,0.16c-2.06,0.08-4.13,0.12-6.2,0.12l-0.26,0c-0.57-0.01-1.09,0.22-1.49,0.61
		c-0.39,0.39-0.62,0.93-0.62,1.48v24.64C669.58,649.33,670.51,650.27,671.67,650.27z"/>
	<path class="st5" d="M651.08,624.3L651.08,624.3c1.11,0.15,2.24,0.28,3.38,0.4c1.55,0.17,3.12,0.31,4.71,0.43l0,0
		c0.33,0.02,0.6,0.3,0.6,0.64c0,0.09-0.02,0.17-0.05,0.25l0,0l-9.29,22.48c-0.28,0.69-0.18,1.47,0.27,2.07
		c0.4,0.53,1.02,0.83,1.67,0.83c0.08,0,0.16,0,0.25-0.01c2.76-0.33,5.57-0.57,8.41-0.76c1.09-0.07,2.19-0.13,3.29-0.18l0,0
		c0.5-0.02,0.91-0.44,0.91-0.95v-2.3c0-0.52-0.42-0.95-0.95-0.95c-0.01,0-0.03,0-0.04,0l0,0c-1.07,0.05-2.14,0.1-3.2,0.17
		c-1.44,0.09-2.88,0.2-4.31,0.33c-0.02,0-0.04,0-0.06,0c-0.36,0-0.64-0.29-0.64-0.64c0-0.09,0.02-0.17,0.05-0.24l9-21.77
		c0.26-0.63,0.2-1.34-0.16-1.92c-0.36-0.58-0.98-0.94-1.66-0.97c-2.99-0.16-5.92-0.4-8.76-0.73c-1.05-0.12-2.09-0.25-3.12-0.39
		l-0.01,0c-0.04,0-0.07-0.01-0.11-0.01c-0.52,0-0.95,0.42-0.95,0.95v2.33C650.27,623.84,650.62,624.24,651.08,624.3z"/>
	<g>
		<path class="st10" d="M718.34,600.04c-0.5-0.37-1.14-0.49-1.74-0.32c-12.85,3.73-28.29,5.7-44.67,5.7
			c-16.37,0-31.82-1.97-44.67-5.7c-0.6-0.17-1.24-0.06-1.74,0.32c-0.5,0.37-0.79,0.96-0.79,1.58v78.12c0,0.62,0.29,1.21,0.79,1.58
			c0.5,0.37,1.14,0.49,1.74,0.32c12.85-3.73,28.29-5.7,44.67-5.7c16.38,0,31.82,1.97,44.67,5.7c0.18,0.05,0.37,0.08,0.55,0.08
			c0.42,0,0.84-0.14,1.19-0.4c0.5-0.37,0.79-0.96,0.79-1.58v-78.12C719.13,601,718.84,600.42,718.34,600.04z"/>
		<g>
			<path class="st5" d="M671.67,650.27h0.27c2.08,0,4.14,0.05,6.2,0.12c1.07,0.04,2.13,0.09,3.19,0.14l0,0c0.02,0,0.04,0,0.05,0
				c0.52,0,0.95-0.42,0.95-0.95v-2.3c0-0.51-0.4-0.92-0.9-0.95l0,0c-1.09-0.06-2.19-0.11-3.29-0.15c-1.24-0.04-2.48-0.08-3.74-0.1
				c-0.35,0-0.64-0.29-0.64-0.64v-8.9c0-0.36,0.29-0.64,0.64-0.64h6.97c0.52,0,0.95-0.42,0.95-0.95v-2.29
				c0-0.52-0.42-0.95-0.95-0.95h-6.97c-0.36,0-0.64-0.29-0.64-0.64v-4.81c0-0.35,0.28-0.64,0.63-0.64l0,0
				c1.25-0.02,2.5-0.06,3.74-0.1c1.1-0.04,2.2-0.09,3.29-0.15c0.5-0.02,0.9-0.44,0.9-0.95v-2.3c0-0.52-0.42-0.95-0.95-0.95
				c-0.02,0-0.04,0-0.06,0l0,0c-1.06,0.06-2.12,0.12-3.18,0.16c-2.06,0.08-4.13,0.12-6.2,0.12l-0.26,0
				c-0.57-0.01-1.09,0.22-1.49,0.61c-0.39,0.39-0.62,0.93-0.62,1.48v24.64C669.58,649.33,670.51,650.27,671.67,650.27z"/>
			<path class="st5" d="M651.08,624.3L651.08,624.3c1.11,0.15,2.24,0.28,3.38,0.4c1.55,0.17,3.12,0.31,4.71,0.43l0,0
				c0.33,0.02,0.6,0.3,0.6,0.64c0,0.09-0.02,0.17-0.05,0.25l0,0l-9.29,22.48c-0.28,0.69-0.18,1.47,0.27,2.07
				c0.4,0.53,1.02,0.83,1.67,0.83c0.08,0,0.16,0,0.25-0.01c2.76-0.33,5.57-0.57,8.41-0.76c1.09-0.07,2.19-0.13,3.29-0.18l0,0
				c0.5-0.02,0.91-0.44,0.91-0.95v-2.3c0-0.52-0.42-0.95-0.95-0.95c-0.01,0-0.03,0-0.04,0l0,0c-1.07,0.05-2.14,0.1-3.2,0.17
				c-1.44,0.09-2.88,0.2-4.31,0.33c-0.02,0-0.04,0-0.06,0c-0.36,0-0.64-0.29-0.64-0.64c0-0.09,0.02-0.17,0.05-0.24l9-21.77
				c0.26-0.63,0.2-1.34-0.16-1.92c-0.36-0.58-0.98-0.94-1.66-0.97c-2.99-0.16-5.92-0.4-8.76-0.73c-1.05-0.12-2.09-0.25-3.12-0.39
				l-0.01,0c-0.04,0-0.07-0.01-0.11-0.01c-0.52,0-0.95,0.42-0.95,0.95v2.33C650.27,623.84,650.62,624.24,651.08,624.3z"/>
			<path class="st5" d="M645.11,619.11c-0.77-0.14-1.52-0.29-2.27-0.44h0c-0.06-0.01-0.12-0.02-0.19-0.02
				c-0.52,0-0.95,0.42-0.95,0.95v42.16c0,0.52,0.42,0.95,0.95,0.95c0.06,0,0.12-0.01,0.18-0.02l0,0c0.75-0.15,1.5-0.3,2.27-0.43l0,0
				c0.45-0.07,0.79-0.46,0.79-0.94v-41.28C645.9,619.58,645.56,619.19,645.11,619.11z"/>
			<path class="st5" d="M697.25,619.46c-0.27,0-0.53,0.02-0.79,0.06c-1.73,0.28-3.51,0.54-5.3,0.76c-2.54,0.32-4.46,2.49-4.46,5.05
				l0,24.73c0,0.49,0.37,0.9,0.85,0.94c0.77,0.07,1.53,0.15,2.29,0.24c0.03,0,0.06,0,0.1,0c0.52,0,0.95-0.42,0.95-0.95l0-5.21
				c0-0.36,0.29-0.64,0.64-0.64h5.8c0.36,0,0.64,0.29,0.64,0.64v11.99c0,0.36-0.29,0.64-0.64,0.64c-0.03,0-0.07,0-0.1-0.01h0
				c-2.08-0.34-4.2-0.64-6.34-0.9c-1.39-0.16-2.78-0.32-4.19-0.44c-1.44-0.13-2.9-0.24-4.37-0.33c-1.39-0.09-2.78-0.15-4.19-0.2
				c-2.05-0.07-4.12-0.12-6.2-0.12c-2.28,0-4.52,0.05-6.73,0.13c-1.41,0.06-2.81,0.13-4.19,0.22c-3.41,0.22-6.72,0.55-9.92,0.97v0
				c-0.47,0.06-0.83,0.46-0.83,0.94v2.35c0,0.52,0.42,0.95,0.95,0.95c0.04,0,0.08,0,0.13-0.01v0c3.13-0.42,6.36-0.76,9.67-0.99
				c1.38-0.1,2.78-0.17,4.19-0.23c2.22-0.09,4.46-0.14,6.73-0.14c2.09,0,4.15,0.05,6.2,0.12c1.41,0.05,2.8,0.12,4.19,0.21
				c1.47,0.09,2.93,0.21,4.37,0.34c1.41,0.13,2.81,0.29,4.19,0.45c2.98,0.36,5.9,0.81,8.76,1.35c0,0,0.01,0,0.01,0
				c0.01,0,0.02,0,0.03,0c0.05,0.01,0.1,0.01,0.15,0.01c0.08,0.01,0.16,0.02,0.24,0.02c0.01,0,0.01,0,0.02,0
				c0.1,0,0.19-0.02,0.29-0.03l0,0c0.34-0.05,0.65-0.18,0.91-0.37c0.08-0.06,0.17-0.12,0.24-0.2c0.3-0.29,0.51-0.67,0.6-1.1
				c0,0,0-0.01,0-0.01c0.01-0.06,0.01-0.12,0.02-0.18c0.01-0.07,0.02-0.14,0.02-0.21v-35.97
				C702.17,621.66,699.96,619.46,697.25,619.46z M697.98,639.61c0,0.36-0.29,0.64-0.64,0.64h-5.8c-0.36,0-0.64-0.29-0.64-0.64
				v-14.28c0-0.45,0.34-0.84,0.78-0.89c1.85-0.23,3.69-0.49,5.46-0.78c0.42-0.06,0.84,0.28,0.84,0.71V639.61z"/>
		</g>
	</g>
</g>
</svg>
