<?xml version="1.0" encoding="utf-8"?>
<!-- Generator: Adobe Illustrator 25.4.1, SVG Export Plug-In . SVG Version: 6.00 Build 0)  -->
<svg version="1.1" id="Layer_1" xmlns="http://www.w3.org/2000/svg" xmlns:xlink="http://www.w3.org/1999/xlink" x="0px" y="0px"
	 viewBox="0 0 286.14 248.79" style="enable-background:new 0 0 286.14 248.79;" xml:space="preserve">
<style type="text/css">
	.st0{fill:#F3F3F3;}
	.st1{fill:#55A6C4;}
	.st2{fill:#ED2777;}
	.st3{fill:#922A76;}
	.st4{fill:#6EC5A4;}
</style>
<g>
	<path class="st0" d="M283.74,1.2c-1.5-1.13-3.46-1.49-5.26-0.96c-38.94,11.3-85.77,17.28-135.41,17.28S46.61,11.54,7.66,0.24
		C5.85-0.29,3.9,0.07,2.39,1.2C0.89,2.33,0,4.11,0,5.99V242.8c0,1.88,0.89,3.66,2.39,4.79c1.51,1.13,3.46,1.49,5.27,0.96
		c38.94-11.3,85.77-17.28,135.41-17.28s96.46,5.97,135.41,17.28c0.55,0.16,1.11,0.24,1.67,0.24c1.28,0,2.55-0.41,3.6-1.2
		c1.51-1.13,2.39-2.9,2.39-4.79V5.99C286.14,4.11,285.25,2.33,283.74,1.2z"/>
</g>
<polyline class="st1" points="151.97,69.21 91.27,74.03 145.66,96.37 "/>
<polygon class="st2" points="151.97,79.43 41.84,95.14 151.97,117.4 "/>
<polygon class="st3" points="131.89,142.11 135.58,96.37 65,114.78 "/>
<path class="st4" d="M173.76,59.03c-22.9,0-42.12,15.74-47.43,37l-39.71,93.72l39.36-1.5l17.7-41.78
	c8.3,6.49,18.73,10.36,30.08,10.36c27.01,0,48.9-21.89,48.9-48.9C222.66,80.93,200.77,59.03,173.76,59.03z"/>
</svg>
