<?xml version="1.0" encoding="utf-8"?>
<!-- Generator: Adobe Illustrator 25.4.1, SVG Export Plug-In . SVG Version: 6.00 Build 0)  -->
<svg version="1.1" id="Layer_1" xmlns="http://www.w3.org/2000/svg" xmlns:xlink="http://www.w3.org/1999/xlink" x="0px" y="0px"
	 viewBox="0 0 878.59 248.79" style="enable-background:new 0 0 878.59 248.79;" xml:space="preserve">
<style type="text/css">
	.st0{fill:#818285;}
	.st1{fill:#6CC5A4;}
	.st2{fill:#F2F2F2;}
	.st3{fill:#55A6C4;}
	.st4{fill:#ED2376;}
	.st5{fill:#912975;}
</style>
<path class="st0" d="M367.78,77.22h36.68c22.12,0,36.68,11.76,36.68,31.08v0.28c0,21.14-17.64,32.06-38.5,32.06h-23.8v34.58h-11.06
	V77.22z M403.06,130.56c16.24,0,26.88-8.68,26.88-21.56v-0.28c0-14-10.5-21.28-26.32-21.28h-24.78v43.12H403.06z"/>
<path class="st0" d="M447.02,154.22v-0.28c0-15.26,12.6-23.38,30.94-23.38c9.24,0,15.82,1.26,22.26,3.08v-2.52
	c0-13.02-7.98-19.74-21.56-19.74c-8.54,0-15.26,2.24-21.98,5.32l-3.22-8.82c7.98-3.64,15.82-6.02,26.32-6.02
	c10.22,0,18.06,2.66,23.38,7.98c4.9,4.9,7.42,11.9,7.42,21.14v44.24h-10.36V164.3c-5.04,6.58-13.44,12.46-26.18,12.46
	C460.6,176.76,447.02,169.06,447.02,154.22z M500.36,148.62v-7c-5.32-1.54-12.46-3.08-21.28-3.08c-13.58,0-21.14,5.88-21.14,14.98
	v0.28c0,9.1,8.4,14.42,18.2,14.42C489.44,168.22,500.36,160.1,500.36,148.62z"/>
<path class="st0" d="M579.32,102.84h11.48l-30.38,74.76c-6.16,14.98-13.16,20.44-24.08,20.44c-6.02,0-10.5-1.26-15.4-3.64l3.64-8.54
	c3.5,1.82,6.72,2.66,11.34,2.66c6.44,0,10.5-3.36,14.84-13.58l-32.9-72.1h11.9l26.32,60.34L579.32,102.84z"/>
<path class="st1" d="M602,77.22h40.04c23.38,0,37.52,13.86,37.52,33.88v0.28c0,22.68-17.64,34.44-39.62,34.44h-16.38v29.4H602V77.22
	z M640.64,126.64c10.78,0,17.08-6.44,17.08-14.84v-0.28c0-9.66-6.72-14.84-17.5-14.84h-16.66v29.96H640.64z"/>
<path class="st1" d="M683.34,138.12v-0.28c0-21.56,17.36-39.06,40.74-39.06c23.24,0,40.46,17.22,40.46,38.78v0.28
	c0,21.56-17.36,39.06-40.74,39.06C700.56,176.9,683.34,159.68,683.34,138.12z M743.54,138.12v-0.28c0-11.06-7.98-20.72-19.74-20.72
	c-12.18,0-19.46,9.38-19.46,20.44v0.28c0,11.06,7.98,20.72,19.74,20.72C736.26,158.56,743.54,149.18,743.54,138.12z"/>
<path class="st1" d="M774.34,100.18h21.28v10.78c5.18-7,12.32-12.18,23.38-12.18c17.5,0,34.16,13.72,34.16,38.78v0.28
	c0,25.06-16.38,38.78-34.16,38.78c-11.34,0-18.34-5.18-23.38-11.2v32.2h-21.28V100.18z M831.88,137.84v-0.28
	c0-12.46-8.4-20.72-18.34-20.72s-18.2,8.26-18.2,20.72v0.28c0,12.46,8.26,20.72,18.2,20.72S831.88,150.44,831.88,137.84z"/>
<path class="st0" d="M852.55,87.52v-0.07c0-7.11,5.76-13.09,13.02-13.09c7.33,0,13.02,5.91,13.02,13.02v0.07
	c0,7.11-5.76,13.09-13.02,13.09C858.24,100.54,852.55,94.63,852.55,87.52z M877.09,87.44v-0.07c0-6.36-4.94-11.6-11.52-11.6
	c-6.51,0-11.52,5.31-11.52,11.67v0.07c0,6.36,4.94,11.6,11.52,11.6C872.08,99.12,877.09,93.8,877.09,87.44z M860.48,80.56h5.99
	c2.92,0,5.09,1.42,5.09,4.19c0,2.17-1.27,3.52-3.07,4.04L872,93.8h-3.07l-3.14-4.56h-2.77v4.56h-2.54V80.56z M866.24,87.14
	c1.72,0,2.69-0.9,2.69-2.17c0-1.42-0.97-2.17-2.69-2.17h-3.22v4.34H866.24z"/>
<g>
	<path class="st2" d="M283.74,1.2c-1.5-1.13-3.46-1.49-5.26-0.96c-38.94,11.3-85.77,17.28-135.41,17.28
		c-49.64,0-96.46-5.98-135.41-17.28C5.85-0.29,3.9,0.07,2.39,1.2C0.89,2.33,0,4.11,0,5.99V242.8c0,1.88,0.89,3.66,2.39,4.79
		c1.51,1.13,3.46,1.49,5.27,0.96c38.94-11.3,85.77-17.28,135.41-17.28c49.64,0,96.46,5.97,135.41,17.28
		c0.55,0.16,1.11,0.24,1.67,0.24c1.28,0,2.55-0.41,3.6-1.2c1.51-1.13,2.39-2.9,2.39-4.79V5.99C286.14,4.11,285.25,2.33,283.74,1.2z"
		/>
</g>
<polyline class="st3" points="151.97,69.21 91.27,74.03 145.66,96.37 "/>
<polygon class="st4" points="151.97,79.43 41.84,95.14 151.97,117.4 "/>
<polygon class="st5" points="131.89,142.11 135.58,96.37 65,114.78 "/>
<path class="st1" d="M173.76,59.03c-22.9,0-42.12,15.74-47.43,37l-39.71,93.72l39.36-1.5l17.7-41.78
	c8.3,6.49,18.73,10.36,30.08,10.36c27.01,0,48.9-21.89,48.9-48.9C222.66,80.93,200.77,59.03,173.76,59.03z"/>
</svg>
